<?xml version="1.0" encoding="UTF-8"?>
<svg width="1200" height="800" viewBox="0 0 1200 800" xmlns="http://www.w3.org/2000/svg">
  <defs>
    <linearGradient id="bg" x1="0" y1="0" x2="1" y2="1">
      <stop offset="0" stop-color="#1b2352"/>
      <stop offset="1" stop-color="#0a6aa5"/>
    </linearGradient>
    <linearGradient id="accent" x1="0" y1="0" x2="0" y2="1">
      <stop offset="0" stop-color="#7C5CFF"/>
      <stop offset="1" stop-color="#5a4bed"/>
    </linearGradient>
  </defs>
  <rect width="1200" height="800" fill="url(#bg)"/>
  <g transform="translate(80,80)" fill="#ffffff" opacity=".12">
    <rect x="0" y="0" width="360" height="200" rx="18"/>
    <rect x="380" y="40" width="360" height="160" rx="18"/>
    <rect x="760" y="0" width="280" height="200" rx="18"/>
  </g>
  <g transform="translate(120,220)">
    <rect x="0" y="0" width="520" height="360" rx="22" fill="#151936" stroke="rgba(255,255,255,.12)"/>
    <g transform="translate(24,24)" font-family="Inter, Arial" fill="#E8ECFF">
      <text font-size="36" font-weight="700">Loan EMI Calculator</text>
      <text y="44" dy="28" font-size="18" fill="#9aa3b2">Compute monthly installment using principal, rate and tenure.</text>
    </g>
    <g transform="translate(24,120)" fill="none" stroke="url(#accent)" stroke-width="10">
      <rect x="0" y="0" width="472" height="64" rx="12"/>
      <rect x="0" y="88" width="472" height="64" rx="12"/>
      <rect x="0" y="176" width="472" height="64" rx="12"/>
    </g>
  </g>
  <g transform="translate(720,220)">
    <circle cx="160" cy="140" r="120" fill="url(#accent)" opacity=".9"/>
    <g fill="#0f1221" font-family="Inter, Arial" font-weight="800" font-size="56" text-anchor="middle">
      <text x="160" y="152">EMI</text>
    </g>
  </g>
</svg>

