<?xml version="1.0" encoding="UTF-8"?>
<svg width="1200" height="800" viewBox="0 0 1200 800" xmlns="http://www.w3.org/2000/svg">
  <defs>
    <linearGradient id="bg5" x1="0" y1="0" x2="1" y2="1">
      <stop offset="0" stop-color="#101430"/>
      <stop offset="1" stop-color="#14224a"/>
    </linearGradient>
    <linearGradient id="btn" x1="0" y1="0" x2="0" y2="1">
      <stop offset="0" stop-color="#4DD2FF"/>
      <stop offset="1" stop-color="#0fb7ff"/>
    </linearGradient>
  </defs>
  <rect width="1200" height="800" fill="url(#bg5)"/>
  <g transform="translate(140,160)">
    <rect width="920" height="480" rx="22" fill="#151936" stroke="rgba(255,255,255,.12)"/>
    <g transform="translate(28,28)" fill="#E8ECFF" font-family="Inter, Arial">
      <text font-size="36" font-weight="700">Simple Contact Book</text>
      <text y="44" dy="28" font-size="18" fill="#9aa3b2">Store, search, and delete contacts.</text>
    </g>
    <g transform="translate(28,120)">
      <rect width="220" height="44" rx="10" fill="#0e1330" stroke="rgba(255,255,255,.08)"/>
      <rect x="236" width="220" height="44" rx="10" fill="#0e1330" stroke="rgba(255,255,255,.08)"/>
      <rect x="472" width="220" height="44" rx="10" fill="#0e1330" stroke="rgba(255,255,255,.08)"/>
      <rect x="708" width="160" height="44" rx="10" fill="url(#btn)"/>
    </g>
    <g transform="translate(28,180)">
      <rect width="380" height="40" rx="10" fill="#0e1330" stroke="rgba(255,255,255,.08)"/>
    </g>
    <g transform="translate(28,240)">
      <rect width="892" height="330" rx="12" fill="#0e1330" stroke="rgba(255,255,255,.08)"/>
      <g transform="translate(18,18)">
        <rect width="856" height="60" rx="10" fill="#12152e"/>
        <rect x="12" y="14" width="220" height="14" rx="4" fill="#e6ebff"/>
        <rect x="250" y="14" width="160" height="14" rx="4" fill="#a6e0ff"/>
        <rect x="420" y="14" width="220" height="14" rx="4" fill="#9aa3b2"/>
        <rect x="660" y="10" width="92" height="28" rx="6" fill="#7c5cff"/>
      </g>
    </g>
  </g>
</svg>

